<svg width="210" height="40" viewBox="0 0 210 40" fill="none" xmlns="http://www.w3.org/2000/svg">
<path fill-rule="evenodd" clip-rule="evenodd" d="M27.142 39.9999C31.5298 39.9999 35.12 36.4099 35.12 32.022V13.3557C35.12 7.58696 32.1878 5.35286 27.142 5.3778C24.9912 5.38842 18.4413 12.1975 12.0917 18.6452C7.42399 23.385 2.7031 27.6554 0.73692 30.2796C-0.985056 32.5779 -0.124518 40 8.05077 40H27.142V39.9999Z" fill="#5CBEFE"/>
<path fill-rule="evenodd" clip-rule="evenodd" d="M16.3427 8.23084e-05C11.9548 8.23084e-05 8.36475 3.59013 8.36475 7.97799V26.6443C8.36475 32.4131 11.2969 34.6472 16.3427 34.6222C18.4935 34.6116 25.0433 27.8026 31.3929 21.3548C36.0606 16.615 40.7816 12.3446 42.7477 9.72038C44.4696 7.42208 43.6092 0 35.4339 0H16.3427V8.23084e-05Z" fill="#EF5579"/>
<path fill-rule="evenodd" clip-rule="evenodd" d="M35.12 17.6515V13.3557C35.12 7.58696 32.1879 5.35286 27.142 5.3778C24.9912 5.38842 18.4414 12.1975 12.0918 18.6452C10.835 19.9214 9.57443 21.1634 8.36475 22.3486V26.6444C8.36475 32.4132 11.2969 34.6473 16.3427 34.6223C18.4935 34.6117 25.0433 27.8026 31.3929 21.3549C32.6497 20.0787 33.9103 18.8367 35.1199 17.6515H35.12Z" fill="#545DB6"/>
<path d="M63.126 30.7875C61.2093 30.7875 59.5208 30.395 58.0604 29.6101C56.6001 28.816 55.4637 27.6843 54.6514 26.2148C53.8391 24.7453 53.433 22.9838 53.433 20.9302V20.1498C53.433 18.224 53.8163 16.5218 54.583 15.0432C55.3497 13.5555 56.4404 12.3917 57.8551 11.5521C59.2789 10.7032 60.9674 10.2788 62.9206 10.2788C64.2897 10.2788 65.5812 10.4659 66.7951 10.8401C68.0181 11.2143 69.1271 11.8213 70.1219 12.661V17.6307H66.9046L66.4665 14.6462C66.1562 14.4362 65.8276 14.2537 65.4808 14.0985C65.134 13.9434 64.7597 13.8247 64.3581 13.7426C63.9566 13.6604 63.523 13.6193 63.0575 13.6193C61.9805 13.6193 61.0496 13.8795 60.2646 14.3997C59.4797 14.92 58.8727 15.6638 58.4438 16.6313C58.0148 17.5988 57.8003 18.7625 57.8003 20.1224V20.9302C57.8003 22.2445 58.0193 23.3945 58.4574 24.3803C58.9047 25.3569 59.5345 26.1144 60.3468 26.6529C61.1591 27.1914 62.1037 27.4607 63.1807 27.4607C63.7466 27.4607 64.3125 27.4013 64.8784 27.2827C65.4443 27.1549 65.9737 26.9906 66.4665 26.7898L66.9183 23.9832H70.1356V28.8571C69.3507 29.3865 68.3604 29.8428 67.1647 30.2262C65.9782 30.6004 64.632 30.7875 63.126 30.7875ZM79.1167 30.7875C77.6199 30.7875 76.3375 30.4726 75.2696 29.8428C74.2109 29.2039 73.3986 28.3186 72.8327 27.1868C72.2759 26.046 71.9976 24.7271 71.9976 23.2302V22.9564C71.9976 21.4778 72.2759 20.1726 72.8327 19.0409C73.3986 17.9091 74.2109 17.0238 75.2696 16.3849C76.3284 15.7368 77.6016 15.4128 79.0894 15.4128C80.5771 15.4128 81.8503 15.7323 82.9091 16.3712C83.9678 17.0101 84.7756 17.8954 85.3323 19.0272C85.8982 20.1589 86.1811 21.4687 86.1811 22.9564V23.2302C86.1811 24.718 85.8982 26.0323 85.3323 27.1732C84.7756 28.3049 83.9678 29.1903 82.9091 29.8292C81.8594 30.4681 80.5953 30.7875 79.1167 30.7875ZM79.1167 27.447C79.7556 27.447 80.2713 27.2736 80.6638 26.9267C81.0654 26.5799 81.3575 26.0916 81.54 25.4618C81.7317 24.832 81.8275 24.0882 81.8275 23.2302V22.9564C81.8275 22.1258 81.7317 21.4002 81.54 20.7796C81.3575 20.1498 81.0654 19.657 80.6638 19.301C80.2622 18.945 79.7374 18.7671 79.0894 18.7671C78.4505 18.7671 77.9302 18.945 77.5286 19.301C77.127 19.657 76.835 20.1498 76.6524 20.7796C76.4699 21.4002 76.3786 22.1258 76.3786 22.9564V23.2302C76.3786 24.0882 76.4699 24.8366 76.6524 25.4755C76.835 26.1053 77.127 26.5936 77.5286 26.9404C77.9302 27.2781 78.4596 27.447 79.1167 27.447ZM88.0568 30.5V27.9125L90.1651 27.488V18.7123L88.0568 18.2879V15.6866H96.2301V18.2879L94.5325 18.7123V21.1492H95.8879L97.8456 18.1099C98.4024 17.2246 98.9911 16.5629 99.6117 16.1248C100.242 15.6775 101.008 15.4539 101.912 15.4539C102.45 15.4539 102.92 15.5224 103.322 15.6593C103.733 15.7962 104.116 15.9742 104.472 16.1932L103.719 19.2325C103.509 19.1687 103.349 19.123 103.24 19.0956C103.139 19.0683 103.025 19.0546 102.898 19.0546C102.596 19.0546 102.304 19.155 102.021 19.3558C101.738 19.5474 101.487 19.8076 101.268 20.1361L99.6254 22.6552L102.706 27.5839L104.746 27.9125V30.5H98.7081L95.9974 25.1743H94.5325V27.488L96.2301 27.9125V30.5H88.0568ZM106.129 36.1953V33.5941L108.018 33.1697V18.7123L105.909 18.2879V15.6866H112.084L112.262 17.3843C112.682 16.7545 113.188 16.2708 113.782 15.9331C114.375 15.5862 115.096 15.4128 115.945 15.4128C117.122 15.4128 118.131 15.7368 118.97 16.3849C119.819 17.0329 120.467 17.9411 120.914 19.1093C121.371 20.2685 121.599 21.6239 121.599 23.1755V23.463C121.599 24.9233 121.371 26.2057 120.914 27.3101C120.467 28.4144 119.815 29.2724 118.957 29.8839C118.108 30.4863 117.086 30.7875 115.89 30.7875C115.123 30.7875 114.448 30.6506 113.864 30.3768C113.289 30.0938 112.791 29.6786 112.371 29.1309V33.1697L114.179 33.5941V36.1953H106.129ZM114.589 27.447C115.539 27.447 116.214 27.091 116.616 26.3791C117.017 25.6672 117.218 24.6951 117.218 23.463V23.1755C117.218 22.2993 117.127 21.5326 116.944 20.8754C116.762 20.2183 116.474 19.7072 116.082 19.3421C115.698 18.977 115.192 18.7944 114.562 18.7944C114.078 18.7944 113.649 18.904 113.275 19.123C112.901 19.3329 112.6 19.6478 112.371 20.0677V26.338C112.6 26.7031 112.901 26.9815 113.275 27.1732C113.658 27.3557 114.097 27.447 114.589 27.447ZM128.129 30.7875C126.669 30.7875 125.496 30.3905 124.611 29.5964C123.735 28.7932 123.297 27.7117 123.297 26.3517C123.297 25.4299 123.543 24.613 124.036 23.9011C124.538 23.1892 125.286 22.6324 126.281 22.2308C127.276 21.8292 128.513 21.6284 129.991 21.6284H131.758V20.6427C131.758 19.9855 131.566 19.4425 131.183 19.0135C130.808 18.5845 130.233 18.37 129.457 18.37C129.083 18.37 128.741 18.4157 128.431 18.5069C128.129 18.5982 127.851 18.7305 127.596 18.904L127.281 20.8207H124.159L124.104 16.8504C124.908 16.4396 125.766 16.0974 126.678 15.8236C127.591 15.5497 128.604 15.4128 129.718 15.4128C131.698 15.4128 133.264 15.8692 134.414 16.7819C135.564 17.6946 136.139 18.9952 136.139 20.6838V26.4886C136.139 26.6985 136.139 26.9039 136.139 27.1047C136.148 27.2964 136.171 27.4835 136.207 27.666L137.768 27.9125V30.5H132.511C132.401 30.2901 132.287 30.0436 132.168 29.7607C132.05 29.4778 131.967 29.1948 131.922 28.9119C131.456 29.4869 130.922 29.9432 130.32 30.2809C129.718 30.6187 128.987 30.7875 128.129 30.7875ZM129.389 27.625C129.845 27.625 130.288 27.5246 130.717 27.3238C131.146 27.123 131.493 26.8491 131.758 26.5023V24.257H130.019C129.252 24.257 128.663 24.4305 128.253 24.7773C127.851 25.1241 127.65 25.5531 127.65 26.0642C127.65 26.5571 127.805 26.9404 128.116 27.2142C128.435 27.488 128.86 27.625 129.389 27.625ZM142.245 30.5V27.9125L144.339 27.488V19.0135H142.053L141.902 20.9302H138.617V15.6866H154.525V20.9302H151.226L151.075 19.0135H148.734V27.488L150.815 27.9125V30.5H142.245ZM156.332 30.5V27.9125L158.427 27.488V18.7123L156.332 18.2879V15.6866H162.822H164.643V18.2879L162.822 18.7123V24.2433L162.904 24.257L167.216 15.6866H171.598H173.678V18.2879L171.598 18.7123V27.488L173.678 27.9125V30.5H165.382V27.9125L167.216 27.488V21.9296L167.134 21.9159L162.822 30.5H156.332ZM175.924 30.5V27.9125L178.032 27.488V18.7123L175.924 18.2879V15.6866H184.097V18.2879L182.399 18.7123V21.1492H183.755L185.713 18.1099C186.269 17.2246 186.858 16.5629 187.479 16.1248C188.109 15.6775 188.875 15.4539 189.779 15.4539C190.317 15.4539 190.787 15.5224 191.189 15.6593C191.6 15.7962 191.983 15.9742 192.339 16.1932L191.586 19.2325C191.376 19.1687 191.216 19.123 191.107 19.0956C191.006 19.0683 190.892 19.0546 190.765 19.0546C190.463 19.0546 190.171 19.155 189.888 19.3558C189.605 19.5474 189.354 19.8076 189.135 20.1361L187.492 22.6552L190.573 27.5839L192.613 27.9125V30.5H186.575L183.864 25.1743H182.399V27.488L184.097 27.9125V30.5H175.924ZM199.02 30.7875C197.56 30.7875 196.387 30.3905 195.501 29.5964C194.625 28.7932 194.187 27.7117 194.187 26.3517C194.187 25.4299 194.434 24.613 194.926 23.9011C195.428 23.1892 196.177 22.6324 197.172 22.2308C198.167 21.8292 199.403 21.6284 200.882 21.6284H202.648V20.6427C202.648 19.9855 202.456 19.4425 202.073 19.0135C201.699 18.5845 201.124 18.37 200.348 18.37C199.974 18.37 199.632 18.4157 199.321 18.5069C199.02 18.5982 198.742 18.7305 198.486 18.904L198.171 20.8207H195.05L194.995 16.8504C195.798 16.4396 196.656 16.0974 197.569 15.8236C198.482 15.5497 199.495 15.4128 200.608 15.4128C202.589 15.4128 204.154 15.8692 205.304 16.7819C206.454 17.6946 207.029 18.9952 207.029 20.6838V26.4886C207.029 26.6985 207.029 26.9039 207.029 27.1047C207.038 27.2964 207.061 27.4835 207.098 27.666L208.658 27.9125V30.5H203.401C203.292 30.2901 203.177 30.0436 203.059 29.7607C202.94 29.4778 202.858 29.1948 202.812 28.9119C202.347 29.4869 201.813 29.9432 201.211 30.2809C200.608 30.6187 199.878 30.7875 199.02 30.7875ZM200.28 27.625C200.736 27.625 201.179 27.5246 201.608 27.3238C202.037 27.123 202.383 26.8491 202.648 26.5023V24.257H200.909C200.143 24.257 199.554 24.4305 199.143 24.7773C198.742 25.1241 198.541 25.5531 198.541 26.0642C198.541 26.5571 198.696 26.9404 199.006 27.2142C199.326 27.488 199.75 27.625 200.28 27.625Z" fill="#343434"/>
</svg>
